<svg width="29" height="20" viewBox="0 0 29 20" fill="none" xmlns="http://www.w3.org/2000/svg">
<path d="M7.90137 3.66675H20.568V10.5046L19.9411 11.4842L20.568 12.3561V16.3334H7.90137V9.88743L8.29322 9.43679L7.90137 9.00575V3.66675Z" fill="#016FD0"/>
<path d="M10.3602 12.4932V10.5045H12.4659L12.6918 10.799L12.9252 10.5045H20.568V12.356C20.568 12.356 20.3682 12.4912 20.137 12.4932H15.905L15.6503 12.1797V12.4932H14.8156V11.9581C14.8156 11.9581 14.7016 12.0327 14.4551 12.0327H14.171V12.4932H12.9073L12.6817 12.1924L12.4527 12.4932L10.3602 12.4932ZM7.90137 9.00567L8.37619 7.89868H9.19736L9.46681 8.51877V7.89868H10.4876L10.648 8.34686L10.8035 7.89868H15.3858V8.124C15.3858 8.124 15.6267 7.89868 16.0225 7.89868L17.5093 7.90389L17.7741 8.51585V7.89868H18.6284L18.8635 8.25021V7.89868H19.7255V9.88735H18.8635L18.6381 9.53467V9.88733H17.3831L17.2569 9.57385H16.9195L16.7953 9.88733H15.9442C15.6035 9.88733 15.3858 9.66663 15.3858 9.66663V9.88733H14.1024L13.8477 9.57387V9.88735H9.07571L8.94958 9.57387H8.61323L8.48802 9.88733H7.90137V9.00567Z" fill="white"/>
<path d="M8.54375 8.14381L7.90332 9.63285H8.32028L8.43845 9.33467H9.12542L9.24297 9.63285H9.66912L9.02927 8.14381H8.54375ZM8.7807 8.49034L8.9901 9.0114H8.5707L8.7807 8.49034ZM9.71319 9.6326V8.14355L10.3057 8.14575L10.6503 9.1058L10.9867 8.14355H11.5745V9.6326H11.2022V8.53541L10.8076 9.6326H10.4812L10.0855 8.53541V9.6326H9.71319ZM11.8292 9.6326V8.14355H13.0439V8.47663H12.2054V8.73133H13.0243V9.04482H12.2054V9.30933H13.0439V9.6326H11.8292ZM13.2595 8.14381V9.63285H13.6317V9.10384H13.7885L14.2348 9.63285H14.6897L14.1999 9.08425C14.4009 9.06728 14.6083 8.89475 14.6083 8.62689C14.6083 8.31355 14.3624 8.14381 14.0879 8.14381H13.2595ZM13.6317 8.47688H14.0572C14.1593 8.47688 14.2336 8.55673 14.2336 8.63362C14.2336 8.73254 14.1374 8.79036 14.0628 8.79036H13.6317V8.47688ZM15.1404 9.6326H14.7603V8.14355H15.1404V9.6326ZM16.0416 9.6326H15.9596C15.5626 9.6326 15.3216 9.31984 15.3216 8.8942C15.3216 8.45803 15.5599 8.14355 16.0612 8.14355H16.4727V8.49622H16.0462C15.8427 8.49622 15.6988 8.65504 15.6988 8.89787C15.6988 9.18624 15.8633 9.30736 16.1004 9.30736H16.1984L16.0416 9.6326ZM16.8517 8.14381L16.2112 9.63285H16.6282L16.7463 9.33467H17.4333L17.5509 9.63285H17.977L17.3372 8.14381H16.8517ZM17.0886 8.49034L17.298 9.0114H16.8786L17.0886 8.49034ZM18.0205 9.6326V8.14355H18.4938L19.0981 9.07911V8.14355H19.4703V9.6326H19.0124L18.3927 8.67256V9.6326H18.0205ZM10.6145 12.2384V10.7494H11.8292V11.0825H10.9906V11.3372H11.8096V11.6506H10.9906V11.9151H11.8292V12.2384H10.6145ZM16.5667 12.2384V10.7494H17.7814V11.0825H16.9429V11.3372H17.7579V11.6506H16.9429V11.9151H17.7814V12.2384H16.5667ZM11.8763 12.2384L12.4678 11.5031L11.8623 10.7494H12.3313L12.6919 11.2153L13.0538 10.7494H13.5044L12.9068 11.4939L13.4994 12.2384H13.0304L12.6803 11.7798L12.3386 12.2384H11.8763ZM13.5436 10.7496V12.2387H13.9256V11.7685H14.3175C14.649 11.7685 14.9004 11.5925 14.9004 11.2505C14.9004 10.9671 14.7032 10.7496 14.3658 10.7496H13.5436ZM13.9256 11.0864H14.3383C14.4454 11.0864 14.522 11.152 14.522 11.2578C14.522 11.3572 14.4458 11.4293 14.3371 11.4293H13.9256V11.0864ZM15.062 10.7494V12.2384H15.4343V11.7094H15.591L16.0373 12.2384H16.4923L16.0024 11.6898C16.2035 11.6729 16.4108 11.5003 16.4108 11.2325C16.4108 10.9191 16.1649 10.7494 15.8904 10.7494H15.062ZM15.4343 11.0825H15.8598C15.9619 11.0825 16.0361 11.1623 16.0361 11.2392C16.0361 11.3381 15.9399 11.3959 15.8653 11.3959H15.4343V11.0825ZM17.9539 12.2384V11.9151H18.6989C18.8091 11.9151 18.8568 11.8556 18.8568 11.7902C18.8568 11.7276 18.8093 11.6644 18.6989 11.6644H18.3622C18.0696 11.6644 17.9066 11.4861 17.9066 11.2184C17.9066 10.9796 18.0558 10.7494 18.4907 10.7494H19.2156L19.0589 11.0844H18.4319C18.3121 11.0844 18.2752 11.1473 18.2752 11.2074C18.2752 11.2691 18.3208 11.3372 18.4123 11.3372H18.765C19.0912 11.3372 19.2328 11.5222 19.2328 11.7645C19.2328 12.0251 19.075 12.2384 18.7472 12.2384H17.9539ZM19.3202 12.2384V11.9151H20.0652C20.1754 11.9151 20.2231 11.8556 20.2231 11.7902C20.2231 11.7276 20.1756 11.6644 20.0652 11.6644H19.7285C19.4359 11.6644 19.2729 11.4861 19.2729 11.2184C19.2729 10.9796 19.4221 10.7494 19.857 10.7494H20.5819L20.4252 11.0844H19.7982C19.6784 11.0844 19.6415 11.1473 19.6415 11.2074C19.6415 11.2691 19.6871 11.3372 19.7786 11.3372H20.1313C20.4575 11.3372 20.5991 11.5222 20.5991 11.7645C20.5991 12.0251 20.4413 12.2384 20.1135 12.2384H19.3202Z" fill="#016FD0"/>
</svg>
