<svg width="19" height="20" viewBox="0 0 19 20" fill="none" xmlns="http://www.w3.org/2000/svg">
<path d="M1.66563 3.16553C1.76406 3.26201 9.35078 8.38311 9.4 8.38311C9.44219 8.38311 17.0359 3.26943 17.1344 3.16553C17.1555 3.14326 13.8016 3.12842 9.4 3.12842C4.99141 3.12842 1.64453 3.15068 1.66563 3.16553Z" fill="#F8F9FA"/>
<path d="M1.10315 10.4614V16.436H9.40002H17.6969V10.4614C17.6969 7.17354 17.6899 4.48682 17.6758 4.48682C17.6617 4.48682 16.2414 5.44424 14.5117 6.61689C12.7891 7.78955 10.9328 9.03643 10.4055 9.4001C9.81487 9.80088 9.41409 10.0458 9.3719 10.031C9.33674 10.0235 7.46643 8.76924 5.23049 7.24775C2.98049 5.73369 1.13831 4.48682 1.12424 4.48682C1.11018 4.48682 1.10315 7.17354 1.10315 10.4614Z" fill="#F8F9FA"/>
</svg>
