<svg width="18" height="19" viewBox="0 0 18 19" fill="none" xmlns="http://www.w3.org/2000/svg">
<path d="M17.0016 2.90197C17.3391 3.24337 17.3883 3.7258 17.1492 4.35666C16.9102 4.98751 16.4742 5.54416 15.8555 6.034L13.943 7.60744L15.8555 14.3985C15.8977 14.5246 15.8484 14.636 15.7078 14.7102L14.2031 15.6528C14.1469 15.6899 14.0695 15.7047 13.9711 15.7047C13.943 15.7047 13.9149 15.7047 13.8867 15.7047C13.7742 15.6824 13.6899 15.6305 13.6336 15.5488L10.3359 10.5836L7.25626 13.1219L7.8961 15.0145C7.93829 15.1332 7.90314 15.2371 7.79064 15.3262L6.66564 16.2539C6.59532 16.3133 6.50392 16.343 6.39142 16.343H6.37032C6.24376 16.3281 6.14532 16.291 6.07501 16.2168L3.8461 13.7528L0.857823 11.9121C0.773448 11.8676 0.724229 11.786 0.710167 11.682C0.696104 11.6004 0.73126 11.5188 0.815635 11.4371L1.96173 10.4945C2.03204 10.4352 2.11642 10.4055 2.21485 10.4055C2.2711 10.4055 2.30626 10.4055 2.32032 10.4055L4.61251 10.9324L7.6922 8.39416L1.65939 5.68517C1.54689 5.6258 1.4836 5.54416 1.46954 5.44025C1.45548 5.33634 1.49064 5.24728 1.57501 5.18048L3.08673 3.93361C3.19923 3.85197 3.31876 3.82228 3.44532 3.84455L11.3133 5.40314L13.1977 3.84455C13.8024 3.3547 14.4844 3.00587 15.2367 2.79806C15.9891 2.59025 16.5727 2.61994 17.0016 2.90197Z" fill="#0010DC"/>
</svg>
