<svg width="24" height="24" viewBox="0 0 24 24" fill="none" xmlns="http://www.w3.org/2000/svg">
<rect x="0.5" y="0.5" width="23" height="23" rx="11.5" fill="white"/>
<rect x="0.5" y="0.5" width="23" height="23" rx="11.5" stroke="#CCCCCC"/>
<path d="M12.3097 6.75H6.74999C6.63718 6.75004 6.5268 6.78279 6.43222 6.84429C6.33764 6.90578 6.26293 6.99338 6.21712 7.09648C6.17131 7.19957 6.15639 7.31374 6.17414 7.42514C6.1919 7.53655 6.24158 7.64042 6.31716 7.72417L10.5317 12.3844C10.7257 12.5988 10.8332 12.8776 10.8333 13.1667V16.6667C10.8333 16.7751 10.8634 16.8813 10.9204 16.9736C10.9774 17.0658 11.0589 17.1403 11.1559 17.1887L12.3226 17.7721C12.4115 17.8165 12.5104 17.8375 12.6097 17.833C12.7091 17.8285 12.8056 17.7987 12.8902 17.7464C12.9748 17.6941 13.0445 17.621 13.0929 17.5341C13.1413 17.4472 13.1667 17.3494 13.1667 17.25V13.1667C13.1668 12.8776 13.2743 12.5988 13.4682 12.3844L13.7173 12.1085M14.625 7.04167L17.5417 9.95833M17.5417 7.04167L14.625 9.95833" stroke="#666666" stroke-width="1.2" stroke-linecap="round" stroke-linejoin="round"/>
</svg>
