
<svg width="18" height="19" viewBox="0 0 18 19" fill="none" xmlns="http://www.w3.org/2000/svg">
<g clip-path="url(#clip0_3132_618)">
<path d="M8.58516 14.3762H10.6594V16.5656H8.58516V14.3762ZM8.58516 10.873H10.6594V13.0625H8.58516V10.873ZM8.58516 7.36991H10.6594V9.55937H8.58516V7.36991ZM8.58516 3.85937H10.6594V6.04882H8.58516V3.85937ZM5.68125 14.3762H7.75547V16.5656H5.68125V14.3762ZM5.68125 10.873H7.75547V13.0625H5.68125V10.873ZM5.68125 7.36991H7.75547V9.55937H5.68125V7.36991ZM5.68125 3.85937H7.75547V6.04882H5.68125V3.85937ZM7.03125 1.12812C5.08359 1.85546 4.02188 2.87968 4.02188 3.4289V18.3172H12.3187V1.66991C12.3187 1.12069 11.5945 0.690225 11.0742 0.794131C11.0742 0.794131 8.97188 0.400772 7.03125 1.12812ZM1.53281 13.0551C1.13203 13.4187 0.703125 14.2574 0.703125 14.8066V18.3098H3.19219V12.1793C3.19219 11.6301 2.76328 11.8156 2.3625 12.1793L1.53281 13.0551ZM14.393 6.48671C13.9008 6.28632 13.1484 6.37538 13.1484 6.9246V18.3098H17.2969V8.67616C17.2969 8.12694 16.9594 7.55546 16.4672 7.36249L14.393 6.48671ZM14.393 9.55937H15.6375V10.873H14.393V9.55937ZM14.393 12.1867H15.6375V13.5004H14.393V12.1867ZM14.393 14.8141H15.6375V16.1277H14.393V14.8141Z" fill="#F8F9FA"/>
</g>
<defs>
<clipPath id="clip0_3132_618">
<rect width="18" height="19" fill="white"/>
</clipPath>
</defs>
</svg>
