<svg width="19" height="20" viewBox="0 0 19 20" fill="none" xmlns="http://www.w3.org/2000/svg">
<path d="M8.80975 1.2793C8.04529 1.36094 7.28826 1.5836 6.58318 1.93985C5.26209 2.60781 4.30467 3.57266 3.6367 4.88633C2.62733 6.89024 2.72381 9.31719 3.89647 11.2172C4.20819 11.7145 9.11404 18.6168 9.21795 18.6836C9.35154 18.7801 9.67811 18.7801 9.8117 18.6836C9.91561 18.6094 14.9105 11.5809 15.1777 11.1355C15.5785 10.475 15.8457 9.71797 16.009 8.84219C16.0906 8.38946 16.0906 7.24649 16.009 6.78633C15.8754 6.0293 15.7195 5.56172 15.3855 4.88633C14.8883 3.87696 14.2277 3.10508 13.2777 2.42969C12.8769 2.14024 12.0457 1.72461 11.5707 1.56875C10.7023 1.28672 9.70779 1.18281 8.80975 1.2793ZM9.96756 5.67305C10.7765 5.84375 11.4816 6.54141 11.6449 7.35039C11.964 8.90157 10.5984 10.2746 9.03983 9.95547C8.42381 9.8293 7.83006 9.36914 7.55545 8.79766C7.12498 7.9293 7.28084 6.94961 7.96365 6.27422C8.49803 5.73985 9.22537 5.51719 9.96756 5.67305Z" fill="#0A0500" fill-opacity="0.6"/>
</svg>
