<svg width="29" height="20" viewBox="0 0 29 20" fill="none" xmlns="http://www.w3.org/2000/svg">
<path d="M11.7031 5.021H17.7995V14.9782H11.7031V5.021Z" fill="#FF5F00"/>
<path d="M12.3311 10.0004C12.3304 9.04162 12.5477 8.09522 12.9667 7.23283C13.3857 6.37044 13.9954 5.61466 14.7496 5.02268C13.8155 4.28855 12.6937 3.83203 11.5123 3.70531C10.331 3.57859 9.13789 3.78678 8.06929 4.30608C7.0007 4.82538 6.09976 5.63484 5.46945 6.64195C4.83914 7.64906 4.50488 8.81319 4.50488 10.0013C4.50488 11.1894 4.83914 12.3535 5.46945 13.3606C6.09976 14.3677 7.0007 15.1772 8.06929 15.6965C9.13789 16.2158 10.331 16.424 11.5123 16.2972C12.6937 16.1705 13.8155 15.714 14.7496 14.9799C13.9952 14.3877 13.3853 13.6317 12.9663 12.7689C12.5473 11.9062 12.3301 10.9595 12.3311 10.0004V10.0004Z" fill="#EB001B"/>
<path d="M24.3899 13.9245V13.7205H24.4778V13.6782H24.2686V13.7205H24.3512V13.9245L24.3899 13.9245ZM24.7962 13.9245V13.6783H24.7329L24.659 13.8541L24.5851 13.6782H24.5218V13.9245H24.5676V13.738L24.6362 13.8981H24.6836L24.7523 13.738V13.9245H24.7962Z" fill="#F79E1B"/>
<path d="M24.9957 10.0005C24.9957 11.1887 24.6613 12.3529 24.0309 13.36C23.4005 14.3672 22.4994 15.1766 21.4307 15.6958C20.3619 16.2151 19.1687 16.4231 17.9873 16.2962C16.8059 16.1693 15.6841 15.7125 14.75 14.9782C15.5039 14.3857 16.1134 13.6297 16.5325 12.7673C16.9517 11.9048 17.1694 10.9585 17.1694 9.99958C17.1694 9.0407 16.9517 8.09435 16.5325 7.23191C16.1134 6.36948 15.5039 5.61349 14.75 5.02099C15.6841 4.28662 16.8059 3.82988 17.9873 3.70297C19.1687 3.57607 20.362 3.78412 21.4307 4.30335C22.4994 4.82258 23.4005 5.63203 24.0309 6.63918C24.6613 7.64633 24.9957 8.81053 24.9957 9.99872V10.0005Z" fill="#F79E1B"/>
</svg>
