<svg width="18" height="19" viewBox="0 0 18 19" fill="none" xmlns="http://www.w3.org/2000/svg">
<path d="M1.65937 16.907C1.56797 16.907 1.49766 16.8773 1.43437 16.8105C1.37109 16.7437 1.34297 16.6621 1.34297 16.573V8.8246L1.61016 8.14921H1.02656C0.984375 8.14921 0.942187 8.14179 0.9 8.11953C0.857812 8.09726 0.822656 8.07499 0.801562 8.04531C0.773437 8.01562 0.752344 7.97851 0.73125 7.9414C0.717187 7.89687 0.703125 7.85234 0.703125 7.80781V7.13242C0.703125 7.07304 0.717188 7.01367 0.745313 6.96171C0.773438 6.90976 0.808594 6.86523 0.857812 6.84296C0.907031 6.81328 0.963281 6.79843 1.01953 6.79843H2.22891L3.28359 3.11718C3.41016 2.84257 3.52969 2.63476 3.64922 2.50117C3.76172 2.36015 3.90937 2.26367 4.08516 2.18945C4.26094 2.12265 4.48594 2.08554 4.76719 2.08554H13.2469C13.5281 2.08554 13.7531 2.12265 13.9289 2.18945C14.1047 2.25624 14.2453 2.36015 14.3648 2.50117C14.4773 2.63476 14.5969 2.84257 14.7305 3.11718L15.7781 6.80585H16.9875C17.0789 6.80585 17.1492 6.83554 17.2125 6.90234C17.2758 6.96914 17.3039 7.04335 17.3039 7.13984V7.81523C17.3039 7.91171 17.2758 7.98593 17.2125 8.05273C17.1492 8.11953 17.0719 8.14921 16.9875 8.14921H16.3969L16.6641 8.8246V16.573C16.6641 16.6695 16.6359 16.7437 16.5727 16.8105C16.5094 16.8773 16.432 16.907 16.3477 16.907H15.068C14.9766 16.907 14.9062 16.8773 14.843 16.8105C14.7797 16.7437 14.7516 16.6621 14.7516 16.573V15.5637H3.25547V16.573C3.25547 16.6695 3.22734 16.7437 3.16406 16.8105C3.10078 16.8773 3.02344 16.907 2.93906 16.907H1.65937ZM3.53672 6.80585H14.4633C14.0273 4.90585 13.7742 3.87421 13.7039 3.70351C13.6055 3.52538 13.4789 3.43632 13.3242 3.43632H4.68281C4.52812 3.43632 4.40156 3.52538 4.30312 3.70351C4.26797 3.77773 4.19062 4.0746 4.06406 4.59414C3.9375 5.11367 3.81797 5.61093 3.7125 6.08593L3.53672 6.80585ZM2.62266 11.5187H4.53516V10.168L1.98281 9.42578V10.8434L2.62266 11.5187ZM13.4719 11.5187H15.3844L16.0242 10.8434V9.42578L13.4719 10.168V11.5187ZM6.44766 14.2129H11.5523V12.8621H6.44766V14.2129Z" fill="#0010DC"/>
</svg>
