<svg width="29" height="20" viewBox="0 0 29 20" fill="none" xmlns="http://www.w3.org/2000/svg">
<mask id="mask0_3045_73075" style="mask-type:luminance" maskUnits="userSpaceOnUse" x="3" y="6" width="23" height="8">
<path d="M14.6262 8.72359C14.6137 9.70974 15.505 10.2601 16.1765 10.5873C16.8664 10.923 17.0981 11.1383 17.0955 11.4385C17.0902 11.898 16.5452 12.1007 16.035 12.1086C15.1449 12.1224 14.6275 11.8683 14.2161 11.6761L13.8955 13.1764C14.3082 13.3667 15.0725 13.5326 15.8651 13.5398C17.7255 13.5398 18.9427 12.6214 18.9493 11.1975C18.9566 9.39046 16.4497 9.29039 16.4668 8.48265C16.4728 8.23775 16.7065 7.9764 17.2186 7.90991C17.4721 7.87634 18.1719 7.85067 18.9651 8.21603L19.2765 6.76445C18.8499 6.60909 18.3015 6.46031 17.6189 6.46031C15.8678 6.46031 14.6361 7.39116 14.6262 8.72359ZM22.2685 6.58539C21.9288 6.58539 21.6425 6.78354 21.5148 7.08768L18.8572 13.4331H20.7162L21.0862 12.4108H23.358L23.5726 13.4331H25.2112L23.7813 6.58539H22.2685ZM22.5286 8.43525L23.0651 11.0066H21.5957L22.5286 8.43525ZM12.3721 6.58539L10.9067 13.4331H12.6782L14.143 6.58539H12.3721ZM9.75139 6.58539L7.90746 11.2462L7.16159 7.2832C7.07404 6.84082 6.72843 6.58539 6.34463 6.58539H3.33022L3.28809 6.7842C3.9069 6.9185 4.60998 7.13508 5.0359 7.36681C5.29659 7.50834 5.37098 7.63211 5.45656 7.9685L6.8693 13.4331H8.74154L11.6118 6.58539H9.75139Z" fill="white"/>
</mask>
<g mask="url(#mask0_3045_73075)">
<path d="M0.992188 7.3059L22.5929 -0.649137L27.507 12.6946L5.90648 20.6497" fill="url(#paint0_linear_3045_73075)"/>
</g>
<defs>
<linearGradient id="paint0_linear_3045_73075" x1="5.27383" y1="13.3247" x2="23.7503" y2="6.52012" gradientUnits="userSpaceOnUse">
<stop stop-color="#222357"/>
<stop offset="1" stop-color="#254AA5"/>
</linearGradient>
</defs>
</svg>
